HIERARCHY
ROOT Hips
{
	OFFSET 0.000000 0.000000 0.000000
	CHANNELS 6 Xposition Yposition Zposition Zrotation Yrotation Xrotation 
	JOINT LHipJoint
	{
		OFFSET 0.000000 0.000000 0.000000
		CHANNELS 3 Zrotation Yrotation Xrotation
		JOINT LeftUpLeg
		{
			OFFSET 1.363060 -1.794630 0.839290
			CHANNELS 3 Zrotation Yrotation Xrotation
			JOINT LeftLeg
			{
				OFFSET 2.448110 -6.726130 0.000000
				CHANNELS 3 Zrotation Yrotation Xrotation
				JOINT LeftFoot
				{
					OFFSET 2.562200 -7.039590 0.000000
					CHANNELS 3 Zrotation Yrotation Xrotation
					JOINT LeftToeBase
					{
						OFFSET 0.157640 -0.433110 2.322550
						CHANNELS 3 Zrotation Yrotation Xrotation
						End Site
						{
							OFFSET 0.000000 0.000000 0.000000
						}
					}
				}
			}
		}
	}
	JOINT RHipJoint
	{
		OFFSET 0.000000 0.000000 0.000000
		CHANNELS 3 Zrotation Yrotation Xrotation
		JOINT RightUpLeg
		{
			OFFSET -1.305520 -1.794630 0.839290
			CHANNELS 3 Zrotation Yrotation Xrotation
			JOINT RightLeg
			{
				OFFSET -2.542530 -6.985550 0.000000
				CHANNELS 3 Zrotation Yrotation Xrotation
				JOINT RightFoot
				{
					OFFSET -2.568260 -7.056230 0.000000
					CHANNELS 3 Zrotation Yrotation Xrotation
					JOINT RightToeBase
					{
						OFFSET -0.164730 -0.452590 2.363150
						CHANNELS 3 Zrotation Yrotation Xrotation
						End Site
						{
							OFFSET 0.000000 0.000000 0.000000
						}
					}
				}
			}
		}
	}
}
MOTION
Frames: 14
Frame Time: 0.008333
2.416150 17.436659 0.449518 5.005926 84.387806 23.126052 -10.865001 0.598428 2.181381 -8.430218 -3.884454 -41.503698 0.323153 2.511719 52.685754 2.786659 16.078140 -2.308216 1.785901 -0.000000 -26.735900 7.756860 -1.752697 3.065261 13.579559 5.983151 -13.381864 3.112164 1.596076 4.149165 -0.875196 -2.527924 -7.678349 -0.253400 0.000000 -24.118000
2.669191 17.433380 0.493873 7.703215 84.083029 25.743634 -10.676287 0.438786 2.350834 -8.553604 -4.502356 -42.134997 0.146715 2.318104 49.832700 2.734557 15.541336 -2.675663 1.684900 0.000000 -27.023500 7.857559 -1.802831 2.853001 13.282717 5.357782 -11.677177 3.094679 1.668903 2.985754 -0.779838 -2.102737 -7.545135 -0.232300 0.000000 -24.240200
2.922878 17.421449 0.534188 8.727566 83.698895 26.695725 -10.481835 0.319626 2.528527 -8.502094 -5.036139 -42.657204 -0.046335 2.117419 46.693161 2.654025 14.845721 -2.896687 1.606900 0.000000 -27.477900 7.958218 -1.835842 2.634919 13.083687 4.763801 -10.025154 3.088294 1.734774 1.955022 -0.685783 -1.657574 -7.455191 -0.207201 0.000000 -24.459500
3.177637 17.400931 0.570238 8.432038 83.253010 26.341531 -10.300419 0.230544 2.718800 -8.267260 -5.482035 -43.091646 -0.251201 1.907379 43.293304 2.541954 13.993588 -2.940423 1.555900 -0.000001 -27.994100 8.039512 -1.857409 2.414101 12.986034 4.212013 -8.423184 3.095584 1.796816 1.042171 -0.592841 -1.196650 -7.393635 -0.181000 0.000000 -24.856700
3.433635 17.372007 0.602185 7.159165 82.762653 25.025368 -10.139751 0.160937 2.922574 -7.854986 -5.833935 -43.457271 -0.461772 1.683949 39.668239 2.399159 13.009734 -2.791353 1.531400 0.000001 -28.468800 8.096240 -1.873239 2.193014 12.987283 3.699969 -6.868905 3.117273 1.855075 0.237024 -0.499305 -0.715674 -7.343235 -0.155300 0.000000 -25.511000
3.691135 17.334939 0.630476 5.188052 82.241848 23.028914 -10.001265 0.101832 3.138653 -7.282693 -6.080280 -43.776773 -0.671927 1.443560 35.860035 2.230052 11.933937 -2.452559 1.527700 -0.000000 -28.843799 8.130529 -1.888513 1.974985 13.081248 3.221626 -5.363880 3.152906 1.908300 -0.465230 -0.403523 -0.209348 -7.287925 -0.131200 -0.000000 -26.477800
3.950130 17.290148 0.655736 2.765160 81.701603 20.596179 -9.883459 0.045735 3.362190 -6.584320 -6.202963 -44.067371 -0.877030 1.183699 31.912927 2.041339 10.812551 -1.946133 1.535600 0.000000 -29.130000 8.148257 -1.907948 1.761397 13.254994 2.763190 -3.908328 3.200948 1.953927 -1.064776 -0.303866 0.329219 -7.213797 -0.109000 -0.000000 -27.803300
4.210989 17.238128 0.678543 0.045275 81.149072 17.888526 -9.784723 -0.012876 3.589461 -5.800488 -6.175073 -44.360559 -1.074634 0.903421 27.875597 1.839867 9.682878 -1.312217 1.544100 0.000000 -29.396600 8.153116 -1.936226 1.561211 13.499390 2.333663 -2.513087 3.259279 1.990875 -1.557189 -0.202709 0.889015 -7.123429 -0.088300 -0.000000 -29.410300
4.473649 17.179549 0.699551 -2.805981 80.592089 15.062810 -9.703600 -0.078612 3.810065 -4.993716 -5.964802 -44.663853 -1.266435 0.603135 23.794830 1.630575 8.568177 -0.603792 1.541300 -0.000000 -29.758500 8.149858 -1.976882 1.374980 13.795747 1.921445 -1.174063 3.325124 2.016357 -1.936211 -0.101063 1.466610 -7.019224 -0.068801 0.000000 -31.257600
4.738208 17.115160 0.719243 -5.662334 80.036022 12.234660 -9.639326 -0.154739 4.012114 -4.238969 -5.536322 -44.984611 -1.458129 0.285052 19.724486 1.415165 7.467457 0.118119 1.514900 0.000000 -30.345200 8.140961 -2.032479 1.204754 14.124544 1.522408 0.114930 3.395282 2.028269 -2.193556 -0.001535 2.050998 -6.912743 -0.049900 0.000000 -33.256300
5.004402 17.045801 0.737925 -8.405323 79.487216 9.495454 -9.590007 -0.244159 4.176205 -3.628885 -4.852775 -45.314039 -1.659520 -0.045743 15.735308 1.190842 6.348110 0.784093 1.449201 0.000000 -31.255699 8.129620 -2.103098 1.042140 14.458227 1.105779 1.377027 3.466756 2.023325 -2.321162 0.096198 2.646652 -6.808629 -0.031000 0.000000 -35.402000
5.272571 16.972438 0.755840 -10.950058 78.949682 6.914698 -9.552347 -0.348005 4.287585 -3.260195 -3.884616 -45.671371 -1.882479 -0.382075 11.922245 0.951643 5.149549 1.328374 1.327801 0.000000 -32.580300 8.116374 -2.188067 0.889788 14.770168 0.673275 2.620644 3.535635 2.000796 -2.309086 0.188672 3.240233 -6.732420 -0.012500 0.000000 -37.517700
5.542792 16.896169 0.773154 -13.183155 78.433555 4.578915 -9.519134 -0.465108 4.330610 -3.233877 -2.628188 -46.070359 -2.138934 -0.714275 8.401903 0.690919 3.798016 1.686316 1.135200 0.000000 -34.340800 8.104940 -2.285085 0.740787 15.019031 0.195812 3.861660 3.597755 1.958110 -2.146874 0.276879 3.841475 -6.693301 0.005200 -0.000000 -39.572200
5.815020 16.818138 0.790211 -14.972779 77.957871 2.591462 -9.478713 -0.589542 4.293405 -3.638809 -1.116384 -46.528855 -2.437901 -1.030036 5.310048 0.404666 2.224472 1.796759 0.864000 0.000000 -36.460900 8.103014 -2.390496 0.580772 15.146512 -0.383894 5.110009 3.648676 1.891388 -1.820279 0.365794 4.485611 -6.688549 0.022000 -0.000000 -41.632900
